<svg version="1.1" id="el_hxoo_D87n" xmlns="http://www.w3.org/2000/svg" xmlns:xlink="http://www.w3.org/1999/xlink" x="0px" y="0px" viewBox="0 0 487 487" style="enable-background:new 0 0 487.622 487.622;" xml:space="preserve"><style>@-webkit-keyframes el_ahgUg9SUGb_Animation{13.33%{opacity: 1;}17.78%{opacity: 0;}23.33%{opacity: 1;}26.67%{opacity: 0;}30%{opacity: 1;}33.33%{opacity: 0;}35.56%{opacity: 1;}38.89%{opacity: 0;}44.44%{opacity: 1;}50%{opacity: 0;}57.78%{opacity: 1;}65.56%{opacity: 0;}76.67%{opacity: 1;}90%{opacity: 0;}100%{opacity: 1;}0%{opacity: 1;}}@keyframes el_ahgUg9SUGb_Animation{13.33%{opacity: 1;}17.78%{opacity: 0;}23.33%{opacity: 1;}26.67%{opacity: 0;}30%{opacity: 1;}33.33%{opacity: 0;}35.56%{opacity: 1;}38.89%{opacity: 0;}44.44%{opacity: 1;}50%{opacity: 0;}57.78%{opacity: 1;}65.56%{opacity: 0;}76.67%{opacity: 1;}90%{opacity: 0;}100%{opacity: 1;}0%{opacity: 1;}}@-webkit-keyframes el_UXcWr7e6ls_Animation{0%{opacity: 0;}83.33%{opacity: 1;}100%{opacity: 1;}}@keyframes el_UXcWr7e6ls_Animation{0%{opacity: 0;}83.33%{opacity: 1;}100%{opacity: 1;}}#el_hxoo_D87n *{-webkit-animation-duration: 3s;animation-duration: 3s;-webkit-animation-timing-function: cubic-bezier(0, 0, 1, 1);animation-timing-function: cubic-bezier(0, 0, 1, 1);}#el_FuNuaPbmK1{fill: #EED26A;}#el_Hv-VApbWg6{fill: #65B3AD;}#el_ca3MnYU-1Q{opacity: 0.37;fill: #56A49E;enable-background: new;}#el_FVSjBfJw_g{fill: #FFFFFF;}#el_O8APZ2B18G{fill: #FFFFFF;}#el_5RXlh924OX{fill: #FFFFFF;}#el_GRI53k6RfO{fill: #FFFFFF;}#el_M4Ttq3AlMN{fill: #FFFFFF;}#el_z5cLJTuIzI{fill: #FFFFFF;}#el_IuD9PUGhtr{fill: #FFFFFF;}#el_9CCstAp5QJ{fill: #FFFFFF;}#el_BriFqbB3u4{fill: #FFFFFF;}#el_jhcxOResr19{fill: #FFFFFF;}#el_vH_SW9h4L5A{fill: #FFFFFF;}#el_Hw6M5yIIb5a{fill: #FFFFFF;}#el_oA43-4bNFrM{fill: #FFFFFF;}#el_X_BKXdscVKM{fill: #FFFFFF;}#el_Z01Z15HV_Ki{fill: #FFFFFF;}#el_jczguuXyJcL{fill: #FFFFFF;}#el_y7xz7aSpWD1{fill: #FFFFFF;}#el_0n_wQHLyUeH{fill: #FFFFFF;}#el_Fxnwlve_rkM{fill: #FFFFFF;}#el_UXcWr7e6ls_MsvsW9AmY{-webkit-transform-origin: 50% 50%;transform-origin: 50% 50%;transform-box: fill-box;-webkit-transform: scale(0, 1);transform: scale(0, 1);}#el_UXcWr7e6ls{opacity: 1;-webkit-animation-name: el_UXcWr7e6ls_Animation;animation-name: el_UXcWr7e6ls_Animation;-webkit-animation-timing-function: cubic-bezier(0, 0, 0.58, 1);animation-timing-function: cubic-bezier(0, 0, 0.58, 1);}#el_ahgUg9SUGb{-webkit-animation-name: el_ahgUg9SUGb_Animation;animation-name: el_ahgUg9SUGb_Animation;opacity: 1;}#el_UXcWr7e6ls_iCdviJOLw{-webkit-transform-origin: 50% 50%;transform-origin: 50% 50%;transform-box: fill-box;-webkit-transform: translate(0px, 0px);transform: translate(0px, 0px);}#el_UXcWr7e6ls_rE_y3Exo2{-webkit-transform-origin: 50% 50%;transform-origin: 50% 50%;transform-box: fill-box;-webkit-transform: rotate(0deg);transform: rotate(0deg);}#el_UXcWr7e6ls_sg5mXzVvz{-webkit-transform-origin: 50% 50%;transform-origin: 50% 50%;transform-box: fill-box;-webkit-transform: scale(1, 1);transform: scale(1, 1);}</style>
<g id="el_7Tidk5a88w">
	<g id="el_UXcWr7e6ls">
		<circle cx="243.811" cy="243.811" r="243.811" id="el_FuNuaPbmK1"/>
		<circle cx="243.811" cy="243.811" r="243.811" id="el_Hv-VApbWg6"/>
		<path d="M487.014,260.943L351.993,129.749H225.118L108.18,246.228&#10;&#9;&#9;&#9;l222.796,225.328C417.498,438.421,480.315,357.415,487.014,260.943z" id="el_ca3MnYU-1Q"/>
		<g id="el_ahgUg9SUGb">
			<circle cx="122.223" cy="246.227" r="14.044" id="el_FVSjBfJw_g"/>
			<path d="M175.608,206.887c7.758,0,14.047-6.29,14.047-14.046c0-7.757-6.289-14.043-14.047-14.043&#10;&#9;&#9;&#9;&#9;c-7.752,0-14.043,6.286-14.043,14.043C161.565,200.597,167.856,206.887,175.608,206.887z" id="el_O8APZ2B18G"/>
			<circle cx="231.315" cy="192.842" r="14.044" id="el_5RXlh924OX"/>
			<circle cx="287.018" cy="192.842" r="14.044" id="el_GRI53k6RfO"/>
			<path d="M342.721,206.887c7.76,0,14.045-6.29,14.045-14.046c0-7.757-6.285-14.043-14.045-14.043&#10;&#9;&#9;&#9;&#9;c-7.754,0-14.043,6.286-14.043,14.043C328.678,200.597,334.967,206.887,342.721,206.887z" id="el_M4Ttq3AlMN"/>
			<circle cx="231.315" cy="135.566" r="14.043" id="el_z5cLJTuIzI"/>
			<circle cx="287.018" cy="135.566" r="14.043" id="el_IuD9PUGhtr"/>
			<path d="M342.721,149.609c7.76,0,14.045-6.287,14.045-14.043s-6.285-14.043-14.045-14.043&#10;&#9;&#9;&#9;&#9;c-7.754,0-14.043,6.287-14.043,14.043S334.967,149.609,342.721,149.609z" id="el_9CCstAp5QJ"/>
			<circle cx="176.358" cy="300.361" r="14.045" id="el_BriFqbB3u4"/>
			<circle cx="231.315" cy="300.361" r="14.045" id="el_jhcxOResr19"/>
			<path d="M286.268,286.316c-7.754,0-14.043,6.289-14.043,14.045c0,7.756,6.289,14.045,14.043,14.045&#10;&#9;&#9;&#9;&#9;c7.76,0,14.049-6.289,14.049-14.045C300.317,292.605,294.028,286.316,286.268,286.316z" id="el_vH_SW9h4L5A"/>
			<circle cx="341.225" cy="300.361" r="14.045" id="el_Hw6M5yIIb5a"/>
			<circle cx="231.315" cy="353.122" r="14.046" id="el_oA43-4bNFrM"/>
			<path d="M286.268,339.076c-7.754,0-14.043,6.291-14.043,14.047c0,7.758,6.289,14.045,14.043,14.045&#10;&#9;&#9;&#9;&#9;c7.76,0,14.049-6.287,14.049-14.045C300.317,345.367,294.028,339.076,286.268,339.076z" id="el_X_BKXdscVKM"/>
			<circle cx="341.225" cy="353.122" r="14.046" id="el_Z01Z15HV_Ki"/>
			<circle cx="176.77" cy="246.227" r="14.044" id="el_jczguuXyJcL"/>
			<circle cx="231.315" cy="246.227" r="14.044" id="el_y7xz7aSpWD1"/>
			<path d="M285.858,260.271c7.758,0,14.049-6.287,14.049-14.043c0-7.758-6.291-14.045-14.049-14.045&#10;&#9;&#9;&#9;&#9;c-7.754,0-14.043,6.287-14.043,14.045C271.815,253.984,278.104,260.271,285.858,260.271z" id="el_0n_wQHLyUeH"/>
			<path d="M340.403,260.271c7.76,0,14.047-6.287,14.047-14.043c0-7.758-6.287-14.045-14.047-14.045&#10;&#9;&#9;&#9;&#9;c-7.754,0-14.043,6.287-14.043,14.045C326.36,253.984,332.649,260.271,340.403,260.271z" id="el_Fxnwlve_rkM"/>
		</g>
	</g>
</g>
<g id="el_zfIydumf3kk">
</g>
<g id="el_fgHvKwSoSzZ">
</g>
<g id="el_hwY1Ts3FDng">
</g>
<g id="el_SHXt8e-O_xH">
</g>
<g id="el_X95Ak71YBJ5">
</g>
<g id="el_IA-WBv0HfxW">
</g>
<g id="el_5MzwWtkq6Nb">
</g>
<g id="el_TT-WKnoQyP2">
</g>
<g id="el_m9ChvHYoMYu">
</g>
<g id="el_L5vp9aBjy8v">
</g>
<g id="el_RTEykJNBUuo">
</g>
<g id="el_NNzCD9XHOvh">
</g>
<g id="el_49WzLNRK2lN">
</g>
<g id="el_VmcFGo4Gbuz">
</g>
<g id="el_lQnWII2l1bM">
</g>
<script>(function(){var a=document.querySelector('#el_hxoo_D87n'),b=a.querySelectorAll('style'),c=function(d){b.forEach(function(f){var g=f.textContent;g&amp;&amp;(f.textContent=g.replace(/transform-box:[^;\r\n]*/gi,'transform-box: '+d))})};c('initial'),window.requestAnimationFrame(function(){return c('fill-box')})})();</script></svg>